<svg xmlns="http://www.w3.org/2000/svg" viewBox="0 0 800 600">
  <defs><linearGradient id="gg2" x1="0%" y1="0%" x2="100%" y2="100%"><stop offset="0%" stop-color="#eff6ff"/><stop offset="100%" stop-color="#d1fae5"/></linearGradient></defs>
  <rect width="800" height="600" fill="url(#gg2)"/>
  <!-- Céu e sol -->
  <circle cx="680" cy="100" r="60" fill="#fbbf24" opacity="0.5"/>
  <!-- Árvores -->
  <g transform="translate(100,160)"><circle r="70" fill="#10b981" opacity="0.7"/><rect x="-10" y="60" width="20" height="120" fill="#64748b"/></g>
  <g transform="translate(700,180)"><circle r="80" fill="#2563eb" opacity="0.2"/><rect x="-10" y="70" width="20" height="120" fill="#64748b"/></g>
  <!-- Caminho -->
  <path d="M0,520 Q400,480 800,520 L800,600 L0,600 Z" fill="#e2e8f0"/>
  <!-- Idoso com cuidador -->
  <g transform="translate(300,200)">
    <path d="M-40,130 Q-50,100 0,95 Q50,100 40,130 L52,300 L-52,300 Z" fill="#10b981"/>
    <rect x="-17" y="65" width="34" height="34" fill="#fdba74"/>
    <ellipse cx="0" cy="22" rx="42" ry="50" fill="#fdba74"/>
    <path d="M-42,18 Q-46,-22 0,-28 Q46,-22 42,18 Q42,0 30,-10 Q0,-16 -30,-10 Q-42,0 -42,18" fill="#e2e8f0"/>
    <circle cx="-14" cy="15" r="5" fill="#1e293b"/><circle cx="14" cy="15" r="5" fill="#1e293b"/>
  </g>
  <g transform="translate(460,180)">
    <path d="M-40,130 Q-50,100 0,95 Q50,100 40,130 L52,320 L-52,320 Z" fill="#2563eb"/>
    <rect x="-16" y="65" width="32" height="34" fill="#fca5a5"/>
    <ellipse cx="0" cy="22" rx="42" ry="50" fill="#fca5a5"/>
    <path d="M-42,18 Q-46,-22 0,-28 Q46,-22 42,18 Q42,0 30,-10 Q0,-16 -30,-10 Q-42,0 -42,18" fill="#334155"/>
    <circle cx="-14" cy="15" r="5" fill="#1e293b"/><circle cx="14" cy="15" r="5" fill="#1e293b"/>
  </g>
  <line x1="380" y1="360" x2="440" y2="340" stroke="#64748b" stroke-width="6" stroke-linecap="round"/>
</svg>
